<svg xmlns="http://www.w3.org/2000/svg" width="17.593" height="17.589" viewBox="0 0 17.593 17.589"><defs><style>.a{fill:#000f8b;}</style></defs><path class="a" d="M8.793,6.523a4.51,4.51,0,1,0,4.51,4.51A4.5,4.5,0,0,0,8.793,6.523Zm0,7.442a2.932,2.932,0,1,1,2.932-2.932,2.937,2.937,0,0,1-2.932,2.932ZM14.54,6.338a1.052,1.052,0,1,1-1.052-1.052A1.049,1.049,0,0,1,14.54,6.338Zm2.987,1.068A5.205,5.205,0,0,0,16.106,3.72,5.24,5.24,0,0,0,12.42,2.3c-1.452-.082-5.8-.082-7.257,0A5.232,5.232,0,0,0,1.477,3.716,5.223,5.223,0,0,0,.057,7.4c-.082,1.452-.082,5.8,0,7.257a5.205,5.205,0,0,0,1.421,3.685,5.246,5.246,0,0,0,3.685,1.421c1.452.082,5.8.082,7.257,0a5.205,5.205,0,0,0,3.686-1.421,5.24,5.24,0,0,0,1.421-3.685c.082-1.452.082-5.8,0-7.253ZM15.65,16.217a2.968,2.968,0,0,1-1.672,1.672c-1.158.459-3.905.353-5.185.353s-4.031.1-5.185-.353a2.968,2.968,0,0,1-1.672-1.672c-.459-1.158-.353-3.905-.353-5.185S1.481,7,1.937,5.848A2.968,2.968,0,0,1,3.609,4.176c1.158-.459,3.905-.353,5.185-.353s4.031-.1,5.185.353A2.968,2.968,0,0,1,15.65,5.848c.459,1.158.353,3.905.353,5.185S16.109,15.063,15.65,16.217Z" transform="translate(0.005 -2.238)"/></svg>